<svg width="215" height="202" viewBox="0 0 215 202" fill="none" xmlns="http://www.w3.org/2000/svg">
<g opacity="0.15">
<path d="M56.5773 55.301C62.0584 27.037 80.5369 17.4138 89.0909 16.1352C119.81 10.1978 158.958 49.8456 175.912 71.7218C192.866 93.5979 200.985 123.786 175.366 141.525C149.747 159.264 132.467 185.649 96.0691 189.452C59.6714 193.255 30.7523 163.715 26.0562 135.956C21.36 108.198 49.7258 90.631 56.5773 55.301Z" stroke="url(#paint0_linear_721_1514)"/>
<path d="M55.2492 48.7083C65.2461 19.3028 88.3076 10.9323 98.5887 10.4227C135.677 7.16692 177.078 53.0438 194.422 77.8977C211.767 102.752 217.624 135.54 185.105 151.804C152.587 168.068 128.861 194.317 85.3175 194.75C41.7745 195.183 11.223 161.026 9.11388 131.151C7.00476 101.276 42.7531 85.4652 55.2492 48.7083Z" stroke="url(#paint1_linear_721_1514)"/>
<path d="M66.789 60.4523C74.5585 37.5985 92.4818 31.0929 100.472 30.6969C129.297 28.1665 161.474 63.8218 174.954 83.1381C188.434 102.454 192.986 127.937 167.713 140.577C142.439 153.218 123.999 173.618 90.158 173.955C56.3166 174.292 32.5721 147.745 30.9329 124.526C29.2937 101.308 57.0771 89.0195 66.789 60.4523Z" stroke="url(#paint2_linear_721_1514)"/>
<path d="M71.9978 65.7526C78.7619 45.8563 94.3657 40.1927 101.322 39.8479C126.417 37.6449 154.429 68.686 166.165 85.5026C177.9 102.319 181.864 124.504 159.861 135.509C137.858 146.513 121.805 164.274 92.3426 164.567C62.8806 164.86 42.2089 141.749 40.7818 121.535C39.3548 101.321 63.5427 90.6229 71.9978 65.7526Z" stroke="url(#paint3_linear_721_1514)"/>
<path d="M77.0599 70.9033C82.8471 53.8805 96.1974 49.0348 102.149 48.7398C123.619 46.855 147.586 73.4131 157.627 87.801C167.668 102.189 171.059 121.17 152.234 130.585C133.408 140 119.673 155.196 94.4665 155.447C69.2594 155.698 51.5732 135.924 50.3522 118.629C49.1312 101.335 69.8259 92.1819 77.0599 70.9033Z" stroke="url(#paint4_linear_721_1514)"/>
<path d="M84.2237 78.1927C88.6283 65.2366 98.7893 61.5486 103.319 61.324C119.66 59.8895 137.902 80.1029 145.544 91.0536C153.185 102.004 155.766 116.451 141.438 123.617C127.111 130.783 116.657 142.348 97.4718 142.539C78.2868 142.73 64.8257 127.68 63.8964 114.517C62.9672 101.354 78.7179 94.3878 84.2237 78.1927Z" stroke="url(#paint5_linear_721_1514)"/>
<path d="M88.6779 82.7262C92.2225 72.2998 100.4 69.3318 104.045 69.1511C117.195 67.9967 131.875 84.2635 138.025 93.076C144.175 101.889 146.252 113.514 134.722 119.281C123.191 125.048 114.779 134.355 99.3393 134.509C83.9001 134.663 73.0673 122.551 72.3194 111.958C71.5716 101.365 84.2471 95.7593 88.6779 82.7262Z" stroke="url(#paint6_linear_721_1514)"/>
<path d="M92.3367 86.4489C95.1753 78.0991 101.724 75.7222 104.643 75.5775C115.174 74.653 126.93 87.6799 131.855 94.7373C136.78 101.795 138.444 111.105 129.21 115.723C119.976 120.341 113.239 127.795 100.875 127.918C88.5105 128.041 79.8353 118.342 79.2364 109.859C78.6375 101.376 88.7884 96.8862 92.3367 86.4489Z" stroke="url(#paint7_linear_721_1514)"/>
</g>
<defs>
<linearGradient id="paint0_linear_721_1514" x1="80.6279" y1="-36.1923" x2="122.724" y2="181.606" gradientUnits="userSpaceOnUse">
<stop stop-color="white"/>
<stop offset="1" stop-color="white" stop-opacity="0"/>
</linearGradient>
<linearGradient id="paint1_linear_721_1514" x1="95.074" y1="-45.857" x2="115.713" y2="189.256" gradientUnits="userSpaceOnUse">
<stop stop-color="white"/>
<stop offset="1" stop-color="white" stop-opacity="0"/>
</linearGradient>
<linearGradient id="paint2_linear_721_1514" x1="97.7406" y1="-13.0434" x2="113.782" y2="169.685" gradientUnits="userSpaceOnUse">
<stop stop-color="white"/>
<stop offset="1" stop-color="white" stop-opacity="0"/>
</linearGradient>
<linearGradient id="paint3_linear_721_1514" x1="98.9439" y1="1.76804" x2="112.909" y2="160.85" gradientUnits="userSpaceOnUse">
<stop stop-color="white"/>
<stop offset="1" stop-color="white" stop-opacity="0"/>
</linearGradient>
<linearGradient id="paint4_linear_721_1514" x1="100.114" y1="16.1595" x2="112.063" y2="152.266" gradientUnits="userSpaceOnUse">
<stop stop-color="white"/>
<stop offset="1" stop-color="white" stop-opacity="0"/>
</linearGradient>
<linearGradient id="paint5_linear_721_1514" x1="101.771" y1="36.5272" x2="110.864" y2="140.118" gradientUnits="userSpaceOnUse">
<stop stop-color="white"/>
<stop offset="1" stop-color="white" stop-opacity="0"/>
</linearGradient>
<linearGradient id="paint6_linear_721_1514" x1="102.799" y1="49.1957" x2="110.117" y2="132.561" gradientUnits="userSpaceOnUse">
<stop stop-color="white"/>
<stop offset="1" stop-color="white" stop-opacity="0"/>
</linearGradient>
<linearGradient id="paint7_linear_721_1514" x1="103.645" y1="59.5967" x2="109.506" y2="126.358" gradientUnits="userSpaceOnUse">
<stop stop-color="white"/>
<stop offset="1" stop-color="white" stop-opacity="0"/>
</linearGradient>
</defs>
</svg>
