<svg width="44" height="60" viewBox="0 0 44 60" fill="none" xmlns="http://www.w3.org/2000/svg">
<path d="M43.254 11.791L39.3814 55.1737L21.974 59.9996L4.61457 55.1805L0.746094 11.791H43.254Z" fill="#004CE8"/>
<path d="M36.066 52.4114L39.3754 15.3389H22V56.311L36.066 52.4114Z" fill="#0065F4"/>
<path d="M9.61523 31.4316L10.0922 36.7531H22.0008L24.2898 34.0924L22.0008 31.4316H9.61523Z" fill="#EBEBEB"/>
<path d="M22.0002 20.6611H21.9818H8.65625L9.14 25.9827H22.0002L24.2892 23.3219L22.0002 20.6611Z" fill="#EBEBEB"/>
<path d="M22.0009 50.789L24.2899 47.967L22.0009 45.2523L21.9776 45.2586L16.0509 43.6582L15.6721 39.4141H12.7922H10.3301L11.0756 47.7696L21.9764 50.7958L22.0009 50.789Z" fill="#EBEBEB"/>
<path d="M10.75 0H17.1953V2.69531H13.4453V5.39062H17.1953V8.08594H10.75V0Z" fill="black"/>
<path d="M18.4844 0H24.9297V2.34375H21.1797V2.8125H24.9297V8.20312H18.4844V5.74219H22.2344V5.27344H18.4844V0Z" fill="black"/>
<path d="M26.2188 0H32.6641V2.34375H28.9141V2.8125H32.6641V8.20312H26.2188V5.74219H29.9688V5.27344H26.2188V0Z" fill="black"/>
<path d="M28.5353 36.7536L27.9176 43.6552L21.9824 45.2572V50.7936L32.8919 47.77L32.9719 46.8709L34.2224 32.8611L34.3523 31.4321L35.313 20.6611H21.9824V25.9827H29.481L28.9968 31.4321H21.9824V36.7536H28.5353Z" fill="white"/>
</svg>
