<svg width="42" height="60" viewBox="0 0 42 60" fill="none" xmlns="http://www.w3.org/2000/svg">
<path d="M21.0703 30C21.0703 24.4771 25.5475 20 31.0703 20C36.5931 20 41.0702 24.4773 41.0702 30C41.0702 35.5229 36.593 39.9999 31.0703 39.9999C25.5473 39.9999 21.0703 35.5228 21.0703 30Z" fill="#00BCFF"/>
<path d="M1.07031 50C1.07031 44.4772 5.54746 40.0001 11.0703 40.0001L16.3994 37.1865L21.0702 40.0001V50C21.0702 55.523 16.5931 60 11.0703 60C5.54746 60 1.07031 55.5228 1.07031 50Z" fill="#00CF7F"/>
<path d="M21.0704 0L15.6289 9.45352L21.0704 19.9999H30.9301C36.453 19.9999 40.93 15.5228 40.93 9.99996C40.93 4.47715 36.4529 0 30.9301 0H21.0704Z" fill="#FF7361"/>
<path d="M0.929688 9.99996C0.929688 15.5228 5.40684 19.9999 10.9296 19.9999L16.2344 22.0488L21.0699 19.9999V0H10.9295C5.40684 0 0.929688 4.47715 0.929688 9.99996Z" fill="#FF4D12"/>
<path d="M1.07031 30.0001C1.07031 35.523 5.54746 40 11.0703 40H21.0702V20H11.0703C5.54746 20 1.07031 24.4773 1.07031 30.0001Z" fill="#B659FF"/>
</svg>
