<svg width="138" height="138" viewBox="0 0 138 138" fill="none" xmlns="http://www.w3.org/2000/svg">
<g opacity="0.1">
<ellipse cx="2.46431" cy="46.8237" rx="2.46431" ry="2.46431" fill="url(#paint0_linear_721_940)"/>
<ellipse cx="2.46431" cy="61.6069" rx="2.46431" ry="2.46431" fill="url(#paint1_linear_721_940)"/>
<ellipse cx="2.46431" cy="76.3881" rx="2.46431" ry="2.46431" fill="url(#paint2_linear_721_940)"/>
<ellipse cx="2.46431" cy="91.1743" rx="2.46431" ry="2.46431" fill="url(#paint3_linear_721_940)"/>
<ellipse cx="2.46431" cy="105.964" rx="2.46431" ry="2.46431" fill="url(#paint4_linear_721_940)"/>
<ellipse cx="17.2475" cy="17.2514" rx="2.46431" ry="2.46431" fill="url(#paint5_linear_721_940)"/>
<ellipse cx="17.2475" cy="32.0346" rx="2.46431" ry="2.46431" fill="url(#paint6_linear_721_940)"/>
<ellipse cx="5.41939" cy="32.0346" rx="2.46431" ry="2.46431" fill="url(#paint7_linear_721_940)"/>
<ellipse cx="17.2475" cy="46.8237" rx="2.46431" ry="2.46431" fill="url(#paint8_linear_721_940)"/>
<ellipse cx="17.2475" cy="61.6069" rx="2.46431" ry="2.46431" fill="url(#paint9_linear_721_940)"/>
<ellipse cx="17.2475" cy="76.3881" rx="2.46431" ry="2.46431" fill="url(#paint10_linear_721_940)"/>
<ellipse cx="17.2475" cy="91.1743" rx="2.46431" ry="2.46431" fill="url(#paint11_linear_721_940)"/>
<ellipse cx="17.2475" cy="105.964" rx="2.46431" ry="2.46431" fill="url(#paint12_linear_721_940)"/>
<ellipse cx="17.2475" cy="120.749" rx="2.46431" ry="2.46431" fill="url(#paint13_linear_721_940)"/>
<ellipse cx="32.0366" cy="17.2514" rx="2.46431" ry="2.46431" fill="url(#paint14_linear_721_940)"/>
<ellipse cx="32.0366" cy="7.38423" rx="2.46431" ry="2.46431" fill="url(#paint15_linear_721_940)"/>
<ellipse cx="32.0366" cy="32.0346" rx="2.46431" ry="2.46431" fill="url(#paint16_linear_721_940)"/>
<ellipse cx="32.0366" cy="46.8237" rx="2.46431" ry="2.46431" fill="url(#paint17_linear_721_940)"/>
<ellipse cx="32.0366" cy="61.6069" rx="2.46431" ry="2.46431" fill="url(#paint18_linear_721_940)"/>
<ellipse cx="32.0366" cy="76.3881" rx="2.46431" ry="2.46431" fill="url(#paint19_linear_721_940)"/>
<ellipse cx="32.0366" cy="91.1743" rx="2.46431" ry="2.46431" fill="url(#paint20_linear_721_940)"/>
<ellipse cx="32.0366" cy="105.964" rx="2.46431" ry="2.46431" fill="url(#paint21_linear_721_940)"/>
<ellipse cx="32.0366" cy="120.749" rx="2.46431" ry="2.46431" fill="url(#paint22_linear_721_940)"/>
<ellipse cx="32.0366" cy="135.534" rx="2.46431" ry="2.46431" fill="url(#paint23_linear_721_940)"/>
<ellipse cx="46.8217" cy="2.46431" rx="2.46431" ry="2.46431" fill="url(#paint24_linear_721_940)"/>
<ellipse cx="46.8217" cy="17.2514" rx="2.46431" ry="2.46431" fill="url(#paint25_linear_721_940)"/>
<ellipse cx="46.8217" cy="32.0346" rx="2.46431" ry="2.46431" fill="url(#paint26_linear_721_940)"/>
<ellipse cx="46.8217" cy="46.8237" rx="2.46431" ry="2.46431" fill="url(#paint27_linear_721_940)"/>
<ellipse cx="46.8217" cy="61.6069" rx="2.46431" ry="2.46431" fill="url(#paint28_linear_721_940)"/>
<ellipse cx="46.8217" cy="76.3881" rx="2.46431" ry="2.46431" fill="url(#paint29_linear_721_940)"/>
<ellipse cx="46.8217" cy="91.1743" rx="2.46431" ry="2.46431" fill="url(#paint30_linear_721_940)"/>
<ellipse cx="46.8217" cy="105.964" rx="2.46431" ry="2.46431" fill="url(#paint31_linear_721_940)"/>
<ellipse cx="46.8217" cy="120.749" rx="2.46431" ry="2.46431" fill="url(#paint32_linear_721_940)"/>
<ellipse cx="46.8217" cy="135.534" rx="2.46431" ry="2.46431" fill="url(#paint33_linear_721_940)"/>
<ellipse cx="61.6069" cy="2.46431" rx="2.46431" ry="2.46431" fill="url(#paint34_linear_721_940)"/>
<ellipse cx="61.6069" cy="17.2514" rx="2.46431" ry="2.46431" fill="url(#paint35_linear_721_940)"/>
<ellipse cx="61.6069" cy="32.0346" rx="2.46431" ry="2.46431" fill="url(#paint36_linear_721_940)"/>
<ellipse cx="61.6069" cy="46.8237" rx="2.46431" ry="2.46431" fill="url(#paint37_linear_721_940)"/>
<ellipse cx="61.6069" cy="61.6069" rx="2.46431" ry="2.46431" fill="url(#paint38_linear_721_940)"/>
<ellipse cx="61.6069" cy="76.3881" rx="2.46431" ry="2.46431" fill="url(#paint39_linear_721_940)"/>
<ellipse cx="61.6069" cy="91.1743" rx="2.46431" ry="2.46431" fill="url(#paint40_linear_721_940)"/>
<ellipse cx="61.6069" cy="105.964" rx="2.46431" ry="2.46431" fill="url(#paint41_linear_721_940)"/>
<ellipse cx="61.6069" cy="120.749" rx="2.46431" ry="2.46431" fill="url(#paint42_linear_721_940)"/>
<ellipse cx="61.6069" cy="135.534" rx="2.46431" ry="2.46431" fill="url(#paint43_linear_721_940)"/>
<ellipse cx="76.392" cy="2.46431" rx="2.46431" ry="2.46431" fill="url(#paint44_linear_721_940)"/>
<ellipse cx="76.392" cy="17.2514" rx="2.46431" ry="2.46431" fill="url(#paint45_linear_721_940)"/>
<ellipse cx="76.392" cy="32.0346" rx="2.46431" ry="2.46431" fill="url(#paint46_linear_721_940)"/>
<ellipse cx="76.392" cy="46.8237" rx="2.46431" ry="2.46431" fill="url(#paint47_linear_721_940)"/>
<ellipse cx="76.392" cy="61.6069" rx="2.46431" ry="2.46431" fill="url(#paint48_linear_721_940)"/>
<ellipse cx="76.392" cy="76.3881" rx="2.46431" ry="2.46431" fill="url(#paint49_linear_721_940)"/>
<ellipse cx="76.392" cy="91.1743" rx="2.46431" ry="2.46431" fill="url(#paint50_linear_721_940)"/>
<ellipse cx="76.392" cy="105.964" rx="2.46431" ry="2.46431" fill="url(#paint51_linear_721_940)"/>
<ellipse cx="76.392" cy="120.749" rx="2.46431" ry="2.46431" fill="url(#paint52_linear_721_940)"/>
<ellipse cx="76.392" cy="135.534" rx="2.46431" ry="2.46431" fill="url(#paint53_linear_721_940)"/>
<ellipse cx="91.1792" cy="2.46431" rx="2.46431" ry="2.46431" fill="url(#paint54_linear_721_940)"/>
<ellipse cx="91.1792" cy="17.2514" rx="2.46431" ry="2.46431" fill="url(#paint55_linear_721_940)"/>
<ellipse cx="91.1792" cy="32.0346" rx="2.46431" ry="2.46431" fill="url(#paint56_linear_721_940)"/>
<ellipse cx="91.1792" cy="46.8237" rx="2.46431" ry="2.46431" fill="url(#paint57_linear_721_940)"/>
<ellipse cx="91.1792" cy="61.6069" rx="2.46431" ry="2.46431" fill="url(#paint58_linear_721_940)"/>
<ellipse cx="91.1792" cy="76.3881" rx="2.46431" ry="2.46431" fill="url(#paint59_linear_721_940)"/>
<ellipse cx="91.1792" cy="91.1743" rx="2.46431" ry="2.46431" fill="url(#paint60_linear_721_940)"/>
<ellipse cx="91.1792" cy="105.964" rx="2.46431" ry="2.46431" fill="url(#paint61_linear_721_940)"/>
<ellipse cx="91.1792" cy="120.749" rx="2.46431" ry="2.46431" fill="url(#paint62_linear_721_940)"/>
<ellipse cx="91.1792" cy="135.534" rx="2.46431" ry="2.46431" fill="url(#paint63_linear_721_940)"/>
<ellipse cx="91.1792" cy="2.46431" rx="2.46431" ry="2.46431" fill="url(#paint64_linear_721_940)"/>
<ellipse cx="91.1792" cy="17.2514" rx="2.46431" ry="2.46431" fill="url(#paint65_linear_721_940)"/>
<ellipse cx="91.1792" cy="32.0346" rx="2.46431" ry="2.46431" fill="url(#paint66_linear_721_940)"/>
<ellipse cx="91.1792" cy="46.8237" rx="2.46431" ry="2.46431" fill="url(#paint67_linear_721_940)"/>
<ellipse cx="91.1792" cy="61.6069" rx="2.46431" ry="2.46431" fill="url(#paint68_linear_721_940)"/>
<ellipse cx="91.1792" cy="76.3881" rx="2.46431" ry="2.46431" fill="url(#paint69_linear_721_940)"/>
<ellipse cx="91.1792" cy="91.1743" rx="2.46431" ry="2.46431" fill="url(#paint70_linear_721_940)"/>
<ellipse cx="91.1792" cy="105.964" rx="2.46431" ry="2.46431" fill="url(#paint71_linear_721_940)"/>
<ellipse cx="91.1792" cy="120.749" rx="2.46431" ry="2.46431" fill="url(#paint72_linear_721_940)"/>
<ellipse cx="91.1792" cy="135.534" rx="2.46431" ry="2.46431" fill="url(#paint73_linear_721_940)"/>
<ellipse cx="105.964" cy="17.2514" rx="2.46431" ry="2.46431" fill="url(#paint74_linear_721_940)"/>
<ellipse cx="105.964" cy="32.0346" rx="2.46431" ry="2.46431" fill="url(#paint75_linear_721_940)"/>
<ellipse cx="105.964" cy="46.8237" rx="2.46431" ry="2.46431" fill="url(#paint76_linear_721_940)"/>
<ellipse cx="105.964" cy="61.6069" rx="2.46431" ry="2.46431" fill="url(#paint77_linear_721_940)"/>
<ellipse cx="105.964" cy="76.3881" rx="2.46431" ry="2.46431" fill="url(#paint78_linear_721_940)"/>
<ellipse cx="105.964" cy="91.1743" rx="2.46431" ry="2.46431" fill="url(#paint79_linear_721_940)"/>
<ellipse cx="105.964" cy="105.964" rx="2.46431" ry="2.46431" fill="url(#paint80_linear_721_940)"/>
<ellipse cx="105.964" cy="120.749" rx="2.46431" ry="2.46431" fill="url(#paint81_linear_721_940)"/>
<ellipse cx="105.964" cy="135.534" rx="2.46431" ry="2.46431" fill="url(#paint82_linear_721_940)"/>
<ellipse cx="120.751" cy="32.0346" rx="2.46431" ry="2.46431" fill="url(#paint83_linear_721_940)"/>
<ellipse cx="120.751" cy="46.8237" rx="2.46431" ry="2.46431" fill="url(#paint84_linear_721_940)"/>
<ellipse cx="120.751" cy="61.6069" rx="2.46431" ry="2.46431" fill="url(#paint85_linear_721_940)"/>
<ellipse cx="120.751" cy="76.3881" rx="2.46431" ry="2.46431" fill="url(#paint86_linear_721_940)"/>
<ellipse cx="120.751" cy="91.1743" rx="2.46431" ry="2.46431" fill="url(#paint87_linear_721_940)"/>
<ellipse cx="120.751" cy="105.964" rx="2.46431" ry="2.46431" fill="url(#paint88_linear_721_940)"/>
<ellipse cx="120.751" cy="120.749" rx="2.46431" ry="2.46431" fill="url(#paint89_linear_721_940)"/>
<ellipse cx="135.537" cy="46.8237" rx="2.46431" ry="2.46431" fill="url(#paint90_linear_721_940)"/>
<ellipse cx="135.537" cy="61.6069" rx="2.46431" ry="2.46431" fill="url(#paint91_linear_721_940)"/>
<ellipse cx="135.537" cy="76.3881" rx="2.46431" ry="2.46431" fill="url(#paint92_linear_721_940)"/>
<ellipse cx="135.537" cy="91.1743" rx="2.46431" ry="2.46431" fill="url(#paint93_linear_721_940)"/>
</g>
<defs>
<linearGradient id="paint0_linear_721_940" x1="0" y1="49.288" x2="4.86324" y2="49.288" gradientUnits="userSpaceOnUse">
<stop stop-color="#3100FF"/>
<stop offset="1" stop-color="#FD31BC"/>
</linearGradient>
<linearGradient id="paint1_linear_721_940" x1="0" y1="64.0712" x2="4.86324" y2="64.0712" gradientUnits="userSpaceOnUse">
<stop stop-color="#3100FF"/>
<stop offset="1" stop-color="#FD31BC"/>
</linearGradient>
<linearGradient id="paint2_linear_721_940" x1="0" y1="78.8524" x2="4.86324" y2="78.8524" gradientUnits="userSpaceOnUse">
<stop stop-color="#3100FF"/>
<stop offset="1" stop-color="#FD31BC"/>
</linearGradient>
<linearGradient id="paint3_linear_721_940" x1="0" y1="93.6386" x2="4.86324" y2="93.6386" gradientUnits="userSpaceOnUse">
<stop stop-color="#3100FF"/>
<stop offset="1" stop-color="#FD31BC"/>
</linearGradient>
<linearGradient id="paint4_linear_721_940" x1="0" y1="108.429" x2="4.86324" y2="108.429" gradientUnits="userSpaceOnUse">
<stop stop-color="#3100FF"/>
<stop offset="1" stop-color="#FD31BC"/>
</linearGradient>
<linearGradient id="paint5_linear_721_940" x1="14.7832" y1="19.7157" x2="19.6464" y2="19.7157" gradientUnits="userSpaceOnUse">
<stop stop-color="#3100FF"/>
<stop offset="1" stop-color="#FD31BC"/>
</linearGradient>
<linearGradient id="paint6_linear_721_940" x1="14.7832" y1="34.4989" x2="19.6464" y2="34.4989" gradientUnits="userSpaceOnUse">
<stop stop-color="#3100FF"/>
<stop offset="1" stop-color="#FD31BC"/>
</linearGradient>
<linearGradient id="paint7_linear_721_940" x1="2.95508" y1="34.4989" x2="7.81832" y2="34.4989" gradientUnits="userSpaceOnUse">
<stop stop-color="#3100FF"/>
<stop offset="1" stop-color="#FD31BC"/>
</linearGradient>
<linearGradient id="paint8_linear_721_940" x1="14.7832" y1="49.288" x2="19.6464" y2="49.288" gradientUnits="userSpaceOnUse">
<stop stop-color="#3100FF"/>
<stop offset="1" stop-color="#FD31BC"/>
</linearGradient>
<linearGradient id="paint9_linear_721_940" x1="14.7832" y1="64.0712" x2="19.6464" y2="64.0712" gradientUnits="userSpaceOnUse">
<stop stop-color="#3100FF"/>
<stop offset="1" stop-color="#FD31BC"/>
</linearGradient>
<linearGradient id="paint10_linear_721_940" x1="14.7832" y1="78.8524" x2="19.6464" y2="78.8524" gradientUnits="userSpaceOnUse">
<stop stop-color="#3100FF"/>
<stop offset="1" stop-color="#FD31BC"/>
</linearGradient>
<linearGradient id="paint11_linear_721_940" x1="14.7832" y1="93.6386" x2="19.6464" y2="93.6386" gradientUnits="userSpaceOnUse">
<stop stop-color="#3100FF"/>
<stop offset="1" stop-color="#FD31BC"/>
</linearGradient>
<linearGradient id="paint12_linear_721_940" x1="14.7832" y1="108.429" x2="19.6464" y2="108.429" gradientUnits="userSpaceOnUse">
<stop stop-color="#3100FF"/>
<stop offset="1" stop-color="#FD31BC"/>
</linearGradient>
<linearGradient id="paint13_linear_721_940" x1="14.7832" y1="123.214" x2="19.6464" y2="123.214" gradientUnits="userSpaceOnUse">
<stop stop-color="#3100FF"/>
<stop offset="1" stop-color="#FD31BC"/>
</linearGradient>
<linearGradient id="paint14_linear_721_940" x1="29.5723" y1="19.7157" x2="34.4355" y2="19.7157" gradientUnits="userSpaceOnUse">
<stop stop-color="#3100FF"/>
<stop offset="1" stop-color="#FD31BC"/>
</linearGradient>
<linearGradient id="paint15_linear_721_940" x1="29.5723" y1="9.84854" x2="34.4355" y2="9.84854" gradientUnits="userSpaceOnUse">
<stop stop-color="#3100FF"/>
<stop offset="1" stop-color="#FD31BC"/>
</linearGradient>
<linearGradient id="paint16_linear_721_940" x1="29.5723" y1="34.4989" x2="34.4355" y2="34.4989" gradientUnits="userSpaceOnUse">
<stop stop-color="#3100FF"/>
<stop offset="1" stop-color="#FD31BC"/>
</linearGradient>
<linearGradient id="paint17_linear_721_940" x1="29.5723" y1="49.288" x2="34.4355" y2="49.288" gradientUnits="userSpaceOnUse">
<stop stop-color="#3100FF"/>
<stop offset="1" stop-color="#FD31BC"/>
</linearGradient>
<linearGradient id="paint18_linear_721_940" x1="29.5723" y1="64.0712" x2="34.4355" y2="64.0712" gradientUnits="userSpaceOnUse">
<stop stop-color="#3100FF"/>
<stop offset="1" stop-color="#FD31BC"/>
</linearGradient>
<linearGradient id="paint19_linear_721_940" x1="29.5723" y1="78.8524" x2="34.4355" y2="78.8524" gradientUnits="userSpaceOnUse">
<stop stop-color="#3100FF"/>
<stop offset="1" stop-color="#FD31BC"/>
</linearGradient>
<linearGradient id="paint20_linear_721_940" x1="29.5723" y1="93.6386" x2="34.4355" y2="93.6386" gradientUnits="userSpaceOnUse">
<stop stop-color="#3100FF"/>
<stop offset="1" stop-color="#FD31BC"/>
</linearGradient>
<linearGradient id="paint21_linear_721_940" x1="29.5723" y1="108.429" x2="34.4355" y2="108.429" gradientUnits="userSpaceOnUse">
<stop stop-color="#3100FF"/>
<stop offset="1" stop-color="#FD31BC"/>
</linearGradient>
<linearGradient id="paint22_linear_721_940" x1="29.5723" y1="123.214" x2="34.4355" y2="123.214" gradientUnits="userSpaceOnUse">
<stop stop-color="#3100FF"/>
<stop offset="1" stop-color="#FD31BC"/>
</linearGradient>
<linearGradient id="paint23_linear_721_940" x1="29.5723" y1="137.998" x2="34.4355" y2="137.998" gradientUnits="userSpaceOnUse">
<stop stop-color="#3100FF"/>
<stop offset="1" stop-color="#FD31BC"/>
</linearGradient>
<linearGradient id="paint24_linear_721_940" x1="44.3574" y1="4.92862" x2="49.2207" y2="4.92862" gradientUnits="userSpaceOnUse">
<stop stop-color="#3100FF"/>
<stop offset="1" stop-color="#FD31BC"/>
</linearGradient>
<linearGradient id="paint25_linear_721_940" x1="44.3574" y1="19.7157" x2="49.2207" y2="19.7157" gradientUnits="userSpaceOnUse">
<stop stop-color="#3100FF"/>
<stop offset="1" stop-color="#FD31BC"/>
</linearGradient>
<linearGradient id="paint26_linear_721_940" x1="44.3574" y1="34.4989" x2="49.2207" y2="34.4989" gradientUnits="userSpaceOnUse">
<stop stop-color="#3100FF"/>
<stop offset="1" stop-color="#FD31BC"/>
</linearGradient>
<linearGradient id="paint27_linear_721_940" x1="44.3574" y1="49.288" x2="49.2207" y2="49.288" gradientUnits="userSpaceOnUse">
<stop stop-color="#3100FF"/>
<stop offset="1" stop-color="#FD31BC"/>
</linearGradient>
<linearGradient id="paint28_linear_721_940" x1="44.3574" y1="64.0712" x2="49.2207" y2="64.0712" gradientUnits="userSpaceOnUse">
<stop stop-color="#3100FF"/>
<stop offset="1" stop-color="#FD31BC"/>
</linearGradient>
<linearGradient id="paint29_linear_721_940" x1="44.3574" y1="78.8524" x2="49.2207" y2="78.8524" gradientUnits="userSpaceOnUse">
<stop stop-color="#3100FF"/>
<stop offset="1" stop-color="#FD31BC"/>
</linearGradient>
<linearGradient id="paint30_linear_721_940" x1="44.3574" y1="93.6386" x2="49.2207" y2="93.6386" gradientUnits="userSpaceOnUse">
<stop stop-color="#3100FF"/>
<stop offset="1" stop-color="#FD31BC"/>
</linearGradient>
<linearGradient id="paint31_linear_721_940" x1="44.3574" y1="108.429" x2="49.2207" y2="108.429" gradientUnits="userSpaceOnUse">
<stop stop-color="#3100FF"/>
<stop offset="1" stop-color="#FD31BC"/>
</linearGradient>
<linearGradient id="paint32_linear_721_940" x1="44.3574" y1="123.214" x2="49.2207" y2="123.214" gradientUnits="userSpaceOnUse">
<stop stop-color="#3100FF"/>
<stop offset="1" stop-color="#FD31BC"/>
</linearGradient>
<linearGradient id="paint33_linear_721_940" x1="44.3574" y1="137.998" x2="49.2207" y2="137.998" gradientUnits="userSpaceOnUse">
<stop stop-color="#3100FF"/>
<stop offset="1" stop-color="#FD31BC"/>
</linearGradient>
<linearGradient id="paint34_linear_721_940" x1="59.1426" y1="4.92862" x2="64.0058" y2="4.92862" gradientUnits="userSpaceOnUse">
<stop stop-color="#3100FF"/>
<stop offset="1" stop-color="#FD31BC"/>
</linearGradient>
<linearGradient id="paint35_linear_721_940" x1="59.1426" y1="19.7157" x2="64.0058" y2="19.7157" gradientUnits="userSpaceOnUse">
<stop stop-color="#3100FF"/>
<stop offset="1" stop-color="#FD31BC"/>
</linearGradient>
<linearGradient id="paint36_linear_721_940" x1="59.1426" y1="34.4989" x2="64.0058" y2="34.4989" gradientUnits="userSpaceOnUse">
<stop stop-color="#3100FF"/>
<stop offset="1" stop-color="#FD31BC"/>
</linearGradient>
<linearGradient id="paint37_linear_721_940" x1="59.1426" y1="49.288" x2="64.0058" y2="49.288" gradientUnits="userSpaceOnUse">
<stop stop-color="#3100FF"/>
<stop offset="1" stop-color="#FD31BC"/>
</linearGradient>
<linearGradient id="paint38_linear_721_940" x1="59.1426" y1="64.0712" x2="64.0058" y2="64.0712" gradientUnits="userSpaceOnUse">
<stop stop-color="#3100FF"/>
<stop offset="1" stop-color="#FD31BC"/>
</linearGradient>
<linearGradient id="paint39_linear_721_940" x1="59.1426" y1="78.8524" x2="64.0058" y2="78.8524" gradientUnits="userSpaceOnUse">
<stop stop-color="#3100FF"/>
<stop offset="1" stop-color="#FD31BC"/>
</linearGradient>
<linearGradient id="paint40_linear_721_940" x1="59.1426" y1="93.6386" x2="64.0058" y2="93.6386" gradientUnits="userSpaceOnUse">
<stop stop-color="#3100FF"/>
<stop offset="1" stop-color="#FD31BC"/>
</linearGradient>
<linearGradient id="paint41_linear_721_940" x1="59.1426" y1="108.429" x2="64.0058" y2="108.429" gradientUnits="userSpaceOnUse">
<stop stop-color="#3100FF"/>
<stop offset="1" stop-color="#FD31BC"/>
</linearGradient>
<linearGradient id="paint42_linear_721_940" x1="59.1426" y1="123.214" x2="64.0058" y2="123.214" gradientUnits="userSpaceOnUse">
<stop stop-color="#3100FF"/>
<stop offset="1" stop-color="#FD31BC"/>
</linearGradient>
<linearGradient id="paint43_linear_721_940" x1="59.1426" y1="137.998" x2="64.0058" y2="137.998" gradientUnits="userSpaceOnUse">
<stop stop-color="#3100FF"/>
<stop offset="1" stop-color="#FD31BC"/>
</linearGradient>
<linearGradient id="paint44_linear_721_940" x1="73.9277" y1="4.92862" x2="78.791" y2="4.92862" gradientUnits="userSpaceOnUse">
<stop stop-color="#3100FF"/>
<stop offset="1" stop-color="#FD31BC"/>
</linearGradient>
<linearGradient id="paint45_linear_721_940" x1="73.9277" y1="19.7157" x2="78.791" y2="19.7157" gradientUnits="userSpaceOnUse">
<stop stop-color="#3100FF"/>
<stop offset="1" stop-color="#FD31BC"/>
</linearGradient>
<linearGradient id="paint46_linear_721_940" x1="73.9277" y1="34.4989" x2="78.791" y2="34.4989" gradientUnits="userSpaceOnUse">
<stop stop-color="#3100FF"/>
<stop offset="1" stop-color="#FD31BC"/>
</linearGradient>
<linearGradient id="paint47_linear_721_940" x1="73.9277" y1="49.288" x2="78.791" y2="49.288" gradientUnits="userSpaceOnUse">
<stop stop-color="#3100FF"/>
<stop offset="1" stop-color="#FD31BC"/>
</linearGradient>
<linearGradient id="paint48_linear_721_940" x1="73.9277" y1="64.0712" x2="78.791" y2="64.0712" gradientUnits="userSpaceOnUse">
<stop stop-color="#3100FF"/>
<stop offset="1" stop-color="#FD31BC"/>
</linearGradient>
<linearGradient id="paint49_linear_721_940" x1="73.9277" y1="78.8524" x2="78.791" y2="78.8524" gradientUnits="userSpaceOnUse">
<stop stop-color="#3100FF"/>
<stop offset="1" stop-color="#FD31BC"/>
</linearGradient>
<linearGradient id="paint50_linear_721_940" x1="73.9277" y1="93.6386" x2="78.791" y2="93.6386" gradientUnits="userSpaceOnUse">
<stop stop-color="#3100FF"/>
<stop offset="1" stop-color="#FD31BC"/>
</linearGradient>
<linearGradient id="paint51_linear_721_940" x1="73.9277" y1="108.429" x2="78.791" y2="108.429" gradientUnits="userSpaceOnUse">
<stop stop-color="#3100FF"/>
<stop offset="1" stop-color="#FD31BC"/>
</linearGradient>
<linearGradient id="paint52_linear_721_940" x1="73.9277" y1="123.214" x2="78.791" y2="123.214" gradientUnits="userSpaceOnUse">
<stop stop-color="#3100FF"/>
<stop offset="1" stop-color="#FD31BC"/>
</linearGradient>
<linearGradient id="paint53_linear_721_940" x1="73.9277" y1="137.998" x2="78.791" y2="137.998" gradientUnits="userSpaceOnUse">
<stop stop-color="#3100FF"/>
<stop offset="1" stop-color="#FD31BC"/>
</linearGradient>
<linearGradient id="paint54_linear_721_940" x1="88.7148" y1="4.92862" x2="93.5781" y2="4.92862" gradientUnits="userSpaceOnUse">
<stop stop-color="#3100FF"/>
<stop offset="1" stop-color="#FD31BC"/>
</linearGradient>
<linearGradient id="paint55_linear_721_940" x1="88.7148" y1="19.7157" x2="93.5781" y2="19.7157" gradientUnits="userSpaceOnUse">
<stop stop-color="#3100FF"/>
<stop offset="1" stop-color="#FD31BC"/>
</linearGradient>
<linearGradient id="paint56_linear_721_940" x1="88.7148" y1="34.4989" x2="93.5781" y2="34.4989" gradientUnits="userSpaceOnUse">
<stop stop-color="#3100FF"/>
<stop offset="1" stop-color="#FD31BC"/>
</linearGradient>
<linearGradient id="paint57_linear_721_940" x1="88.7148" y1="49.288" x2="93.5781" y2="49.288" gradientUnits="userSpaceOnUse">
<stop stop-color="#3100FF"/>
<stop offset="1" stop-color="#FD31BC"/>
</linearGradient>
<linearGradient id="paint58_linear_721_940" x1="88.7148" y1="64.0712" x2="93.5781" y2="64.0712" gradientUnits="userSpaceOnUse">
<stop stop-color="#3100FF"/>
<stop offset="1" stop-color="#FD31BC"/>
</linearGradient>
<linearGradient id="paint59_linear_721_940" x1="88.7148" y1="78.8524" x2="93.5781" y2="78.8524" gradientUnits="userSpaceOnUse">
<stop stop-color="#3100FF"/>
<stop offset="1" stop-color="#FD31BC"/>
</linearGradient>
<linearGradient id="paint60_linear_721_940" x1="88.7148" y1="93.6386" x2="93.5781" y2="93.6386" gradientUnits="userSpaceOnUse">
<stop stop-color="#3100FF"/>
<stop offset="1" stop-color="#FD31BC"/>
</linearGradient>
<linearGradient id="paint61_linear_721_940" x1="88.7148" y1="108.429" x2="93.5781" y2="108.429" gradientUnits="userSpaceOnUse">
<stop stop-color="#3100FF"/>
<stop offset="1" stop-color="#FD31BC"/>
</linearGradient>
<linearGradient id="paint62_linear_721_940" x1="88.7148" y1="123.214" x2="93.5781" y2="123.214" gradientUnits="userSpaceOnUse">
<stop stop-color="#3100FF"/>
<stop offset="1" stop-color="#FD31BC"/>
</linearGradient>
<linearGradient id="paint63_linear_721_940" x1="88.7148" y1="137.998" x2="93.5781" y2="137.998" gradientUnits="userSpaceOnUse">
<stop stop-color="#3100FF"/>
<stop offset="1" stop-color="#FD31BC"/>
</linearGradient>
<linearGradient id="paint64_linear_721_940" x1="88.7148" y1="4.92862" x2="93.5781" y2="4.92862" gradientUnits="userSpaceOnUse">
<stop stop-color="#3100FF"/>
<stop offset="1" stop-color="#FD31BC"/>
</linearGradient>
<linearGradient id="paint65_linear_721_940" x1="88.7148" y1="19.7157" x2="93.5781" y2="19.7157" gradientUnits="userSpaceOnUse">
<stop stop-color="#3100FF"/>
<stop offset="1" stop-color="#FD31BC"/>
</linearGradient>
<linearGradient id="paint66_linear_721_940" x1="88.7148" y1="34.4989" x2="93.5781" y2="34.4989" gradientUnits="userSpaceOnUse">
<stop stop-color="#3100FF"/>
<stop offset="1" stop-color="#FD31BC"/>
</linearGradient>
<linearGradient id="paint67_linear_721_940" x1="88.7148" y1="49.288" x2="93.5781" y2="49.288" gradientUnits="userSpaceOnUse">
<stop stop-color="#3100FF"/>
<stop offset="1" stop-color="#FD31BC"/>
</linearGradient>
<linearGradient id="paint68_linear_721_940" x1="88.7148" y1="64.0712" x2="93.5781" y2="64.0712" gradientUnits="userSpaceOnUse">
<stop stop-color="#3100FF"/>
<stop offset="1" stop-color="#FD31BC"/>
</linearGradient>
<linearGradient id="paint69_linear_721_940" x1="88.7148" y1="78.8524" x2="93.5781" y2="78.8524" gradientUnits="userSpaceOnUse">
<stop stop-color="#3100FF"/>
<stop offset="1" stop-color="#FD31BC"/>
</linearGradient>
<linearGradient id="paint70_linear_721_940" x1="88.7148" y1="93.6386" x2="93.5781" y2="93.6386" gradientUnits="userSpaceOnUse">
<stop stop-color="#3100FF"/>
<stop offset="1" stop-color="#FD31BC"/>
</linearGradient>
<linearGradient id="paint71_linear_721_940" x1="88.7148" y1="108.429" x2="93.5781" y2="108.429" gradientUnits="userSpaceOnUse">
<stop stop-color="#3100FF"/>
<stop offset="1" stop-color="#FD31BC"/>
</linearGradient>
<linearGradient id="paint72_linear_721_940" x1="88.7148" y1="123.214" x2="93.5781" y2="123.214" gradientUnits="userSpaceOnUse">
<stop stop-color="#3100FF"/>
<stop offset="1" stop-color="#FD31BC"/>
</linearGradient>
<linearGradient id="paint73_linear_721_940" x1="88.7148" y1="137.998" x2="93.5781" y2="137.998" gradientUnits="userSpaceOnUse">
<stop stop-color="#3100FF"/>
<stop offset="1" stop-color="#FD31BC"/>
</linearGradient>
<linearGradient id="paint74_linear_721_940" x1="103.5" y1="19.7157" x2="108.363" y2="19.7157" gradientUnits="userSpaceOnUse">
<stop stop-color="#3100FF"/>
<stop offset="1" stop-color="#FD31BC"/>
</linearGradient>
<linearGradient id="paint75_linear_721_940" x1="103.5" y1="34.4989" x2="108.363" y2="34.4989" gradientUnits="userSpaceOnUse">
<stop stop-color="#3100FF"/>
<stop offset="1" stop-color="#FD31BC"/>
</linearGradient>
<linearGradient id="paint76_linear_721_940" x1="103.5" y1="49.288" x2="108.363" y2="49.288" gradientUnits="userSpaceOnUse">
<stop stop-color="#3100FF"/>
<stop offset="1" stop-color="#FD31BC"/>
</linearGradient>
<linearGradient id="paint77_linear_721_940" x1="103.5" y1="64.0712" x2="108.363" y2="64.0712" gradientUnits="userSpaceOnUse">
<stop stop-color="#3100FF"/>
<stop offset="1" stop-color="#FD31BC"/>
</linearGradient>
<linearGradient id="paint78_linear_721_940" x1="103.5" y1="78.8524" x2="108.363" y2="78.8524" gradientUnits="userSpaceOnUse">
<stop stop-color="#3100FF"/>
<stop offset="1" stop-color="#FD31BC"/>
</linearGradient>
<linearGradient id="paint79_linear_721_940" x1="103.5" y1="93.6386" x2="108.363" y2="93.6386" gradientUnits="userSpaceOnUse">
<stop stop-color="#3100FF"/>
<stop offset="1" stop-color="#FD31BC"/>
</linearGradient>
<linearGradient id="paint80_linear_721_940" x1="103.5" y1="108.429" x2="108.363" y2="108.429" gradientUnits="userSpaceOnUse">
<stop stop-color="#3100FF"/>
<stop offset="1" stop-color="#FD31BC"/>
</linearGradient>
<linearGradient id="paint81_linear_721_940" x1="103.5" y1="123.214" x2="108.363" y2="123.214" gradientUnits="userSpaceOnUse">
<stop stop-color="#3100FF"/>
<stop offset="1" stop-color="#FD31BC"/>
</linearGradient>
<linearGradient id="paint82_linear_721_940" x1="103.5" y1="137.998" x2="108.363" y2="137.998" gradientUnits="userSpaceOnUse">
<stop stop-color="#3100FF"/>
<stop offset="1" stop-color="#FD31BC"/>
</linearGradient>
<linearGradient id="paint83_linear_721_940" x1="118.287" y1="34.4989" x2="123.15" y2="34.4989" gradientUnits="userSpaceOnUse">
<stop stop-color="#3100FF"/>
<stop offset="1" stop-color="#FD31BC"/>
</linearGradient>
<linearGradient id="paint84_linear_721_940" x1="118.287" y1="49.288" x2="123.15" y2="49.288" gradientUnits="userSpaceOnUse">
<stop stop-color="#3100FF"/>
<stop offset="1" stop-color="#FD31BC"/>
</linearGradient>
<linearGradient id="paint85_linear_721_940" x1="118.287" y1="64.0712" x2="123.15" y2="64.0712" gradientUnits="userSpaceOnUse">
<stop stop-color="#3100FF"/>
<stop offset="1" stop-color="#FD31BC"/>
</linearGradient>
<linearGradient id="paint86_linear_721_940" x1="118.287" y1="78.8524" x2="123.15" y2="78.8524" gradientUnits="userSpaceOnUse">
<stop stop-color="#3100FF"/>
<stop offset="1" stop-color="#FD31BC"/>
</linearGradient>
<linearGradient id="paint87_linear_721_940" x1="118.287" y1="93.6386" x2="123.15" y2="93.6386" gradientUnits="userSpaceOnUse">
<stop stop-color="#3100FF"/>
<stop offset="1" stop-color="#FD31BC"/>
</linearGradient>
<linearGradient id="paint88_linear_721_940" x1="118.287" y1="108.429" x2="123.15" y2="108.429" gradientUnits="userSpaceOnUse">
<stop stop-color="#3100FF"/>
<stop offset="1" stop-color="#FD31BC"/>
</linearGradient>
<linearGradient id="paint89_linear_721_940" x1="118.287" y1="123.214" x2="123.15" y2="123.214" gradientUnits="userSpaceOnUse">
<stop stop-color="#3100FF"/>
<stop offset="1" stop-color="#FD31BC"/>
</linearGradient>
<linearGradient id="paint90_linear_721_940" x1="133.072" y1="49.288" x2="137.936" y2="49.288" gradientUnits="userSpaceOnUse">
<stop stop-color="#3100FF"/>
<stop offset="1" stop-color="#FD31BC"/>
</linearGradient>
<linearGradient id="paint91_linear_721_940" x1="133.072" y1="64.0712" x2="137.936" y2="64.0712" gradientUnits="userSpaceOnUse">
<stop stop-color="#3100FF"/>
<stop offset="1" stop-color="#FD31BC"/>
</linearGradient>
<linearGradient id="paint92_linear_721_940" x1="133.072" y1="78.8524" x2="137.936" y2="78.8524" gradientUnits="userSpaceOnUse">
<stop stop-color="#3100FF"/>
<stop offset="1" stop-color="#FD31BC"/>
</linearGradient>
<linearGradient id="paint93_linear_721_940" x1="133.072" y1="93.6386" x2="137.936" y2="93.6386" gradientUnits="userSpaceOnUse">
<stop stop-color="#3100FF"/>
<stop offset="1" stop-color="#FD31BC"/>
</linearGradient>
</defs>
</svg>
