<svg width="54" height="60" viewBox="0 0 54 60" fill="none" xmlns="http://www.w3.org/2000/svg">
<path fill-rule="evenodd" clip-rule="evenodd" d="M29.3589 0.728087L50.7492 13.077C52.4278 14.0478 53.3887 15.7115 53.3887 17.6515V42.3494C53.3887 44.2893 52.4278 45.953 50.7492 46.9238L29.3589 59.2727C27.6803 60.2435 25.7569 60.2435 24.0766 59.2727L2.688 46.9238C1.00774 45.953 0.046875 44.2893 0.046875 42.3494V17.6515C0.046875 15.7115 1.00774 14.0478 2.688 13.077L24.0766 0.728087C25.7569 -0.242696 27.6803 -0.242696 29.3589 0.728087Z" fill="#FFC42E"/>
<mask id="mask0_728_253" style="mask-type:luminance" maskUnits="userSpaceOnUse" x="0" y="0" width="54" height="61">
<path d="M29.3589 0.728087L50.7492 13.077C52.4278 14.0478 53.3887 15.7115 53.3887 17.6515V42.3494C53.3887 44.2893 52.4278 45.953 50.7492 46.9238L29.3589 59.2727C27.6803 60.2435 25.7569 60.2435 24.0766 59.2727L2.688 46.9238C1.00774 45.953 0.046875 44.2893 0.046875 42.3494V17.6515C0.046875 15.7115 1.00774 14.0478 2.688 13.077L24.0766 0.728087C25.7569 -0.242696 27.6803 -0.242696 29.3589 0.728087Z" fill="white"/>
</mask>
<g mask="url(#mask0_728_253)">
<path fill-rule="evenodd" clip-rule="evenodd" d="M9.05694 13.4355H44.3789C46.3783 13.4355 48.0156 15.0712 48.0156 17.0706V20.7073H5.42188V17.0706C5.42188 15.0712 7.05749 13.4355 9.05694 13.4355Z" fill="#1C3B5C"/>
<path fill-rule="evenodd" clip-rule="evenodd" d="M5.42188 20.707H48.0156V63.7837H5.42188V20.707Z" fill="white"/>
<path d="M26.6974 16.0059H10.7249C9.9988 16.0059 9.41016 16.4827 9.41016 17.0709V17.0726C9.41016 17.6608 9.9988 18.1376 10.7249 18.1376H26.6974C27.4235 18.1376 28.0121 17.6608 28.0121 17.0726V17.0709C28.0121 16.4827 27.4235 16.0059 26.6974 16.0059Z" fill="#E1E3E8"/>
<path d="M33.746 18.3982C34.4794 18.3982 35.074 17.8036 35.074 17.0702C35.074 16.3368 34.4794 15.7422 33.746 15.7422C33.0125 15.7422 32.418 16.3368 32.418 17.0702C32.418 17.8036 33.0125 18.3982 33.746 18.3982Z" fill="#FF576B"/>
<path d="M38.4706 18.3982C39.204 18.3982 39.7986 17.8036 39.7986 17.0702C39.7986 16.3368 39.204 15.7422 38.4706 15.7422C37.7371 15.7422 37.1426 16.3368 37.1426 17.0702C37.1426 17.8036 37.7371 18.3982 38.4706 18.3982Z" fill="#FFC42E"/>
<path d="M43.1971 18.3982C43.9306 18.3982 44.5251 17.8036 44.5251 17.0702C44.5251 16.3368 43.9306 15.7422 43.1971 15.7422C42.4637 15.7422 41.8691 16.3368 41.8691 17.0702C41.8691 17.8036 42.4637 18.3982 43.1971 18.3982Z" fill="#53B4ED"/>
<path fill-rule="evenodd" clip-rule="evenodd" d="M10.5156 23.3467H24.0487V36.8798H10.5156V23.3467Z" fill="#53B4ED"/>
<path fill-rule="evenodd" clip-rule="evenodd" d="M26.9785 31.7528H38.4361V32.7517H26.9785V31.7528ZM26.9785 29.3531H42.9195V30.3536H26.9785V29.3531ZM26.9785 26.9551H42.9195V27.954H26.9785V26.9551Z" fill="#AFB0B5"/>
<path d="M40.884 37.5957H34.5202C34.1229 37.5957 33.8008 37.9178 33.8008 38.3151V39.6001C33.8008 39.9974 34.1229 40.3195 34.5202 40.3195H40.884C41.2813 40.3195 41.6034 39.9974 41.6034 39.6001V38.3151C41.6034 37.9178 41.2813 37.5957 40.884 37.5957Z" fill="#FF576B"/>
<path fill-rule="evenodd" clip-rule="evenodd" d="M15.5215 42.6035H25.8627V52.1675H15.5215V42.6035Z" fill="#E1E3E8"/>
<path fill-rule="evenodd" clip-rule="evenodd" d="M27.5723 42.6035H37.9135V52.1675H27.5723V42.6035Z" fill="#E1E3E8"/>
<path d="M11.435 49.457C12.6763 49.457 13.6825 48.4507 13.6825 47.2094C13.6825 45.9682 12.6763 44.9619 11.435 44.9619C10.1937 44.9619 9.1875 45.9682 9.1875 47.2094C9.1875 48.4507 10.1937 49.457 11.435 49.457Z" fill="#E1E3E8"/>
<path fill-rule="evenodd" clip-rule="evenodd" d="M10.3633 47.2091L11.8732 45.6992L11.5292 47.2091L11.8732 48.7207L10.3633 47.2091Z" fill="white"/>
<path d="M42.0014 49.457C43.2427 49.457 44.2489 48.4507 44.2489 47.2094C44.2489 45.9682 43.2427 44.9619 42.0014 44.9619C40.7602 44.9619 39.7539 45.9682 39.7539 47.2094C39.7539 48.4507 40.7602 49.457 42.0014 49.457Z" fill="#E1E3E8"/>
<path fill-rule="evenodd" clip-rule="evenodd" d="M43.0741 47.2091L41.5625 45.6992L41.9081 47.2091L41.5625 48.7207L43.0741 47.2091Z" fill="white"/>
<path fill-rule="evenodd" clip-rule="evenodd" d="M26.9785 23.6875H34.7812V25.3082H26.9785V23.6875Z" fill="#FF576B"/>
<path fill-rule="evenodd" clip-rule="evenodd" d="M13.3809 38.4893H21.1835V40.11H13.3809V38.4893Z" fill="#AFB0B5"/>
</g>
</svg>
