<svg width="370" height="622" viewBox="0 0 370 622" fill="none" xmlns="http://www.w3.org/2000/svg">
<g opacity="0.4">
<path d="M-142.817 170.887C-121.841 83.5475 -61.3121 53.8104 -33.6697 49.8593C65.7579 31.512 186.856 154.029 238.739 221.629C290.621 289.23 313.124 382.515 228.683 437.331C144.242 492.146 85.5696 573.68 -31.8545 585.432C-149.279 597.184 -238.703 505.9 -250.495 420.123C-262.286 334.347 -169.037 280.061 -142.817 170.887Z" stroke="url(#paint0_linear_721_231)"/>
<path d="M-146.304 150.518C-110.68 59.6511 -35.5718 33.7849 -2.47055 32.2103C117.107 22.1494 244.703 163.915 297.488 240.717C350.272 317.519 365.198 418.838 258.757 469.096C152.316 519.354 72.9461 600.467 -67.0403 601.806C-207.027 603.145 -301.149 497.596 -304.374 405.277C-307.6 312.959 -190.834 264.102 -146.304 150.518Z" stroke="url(#paint1_linear_721_231)"/>
<path d="M-110.612 186.805C-82.9254 116.183 -24.5514 96.0804 1.17475 94.8566C94.1101 87.0373 193.277 197.217 234.301 256.907C275.325 316.597 286.925 395.342 204.2 434.402C121.474 473.463 59.7882 536.503 -49.0086 537.544C-157.805 538.584 -230.957 456.552 -233.463 384.803C-235.97 313.053 -145.221 275.082 -110.612 186.805Z" stroke="url(#paint2_linear_721_231)"/>
<path d="M-94.5024 203.186C-70.3986 141.704 -19.5788 124.202 2.81812 123.137C83.7266 116.33 170.06 212.251 205.775 264.216C241.49 316.182 251.589 384.736 179.569 418.742C107.55 452.747 53.8463 507.63 -40.871 508.535C-135.588 509.441 -199.273 438.025 -201.455 375.561C-203.638 313.096 -124.632 280.039 -94.5024 203.186Z" stroke="url(#paint3_linear_721_231)"/>
<path d="M-78.848 219.101C-58.2253 166.498 -14.745 151.524 4.41733 150.612C73.6409 144.788 147.506 226.856 178.063 271.317C208.62 315.778 217.26 374.431 155.642 403.526C94.0233 432.62 48.076 479.576 -32.9621 480.351C-114 481.126 -168.487 420.024 -170.355 366.581C-172.222 313.138 -104.626 284.854 -78.848 219.101Z" stroke="url(#paint4_linear_721_231)"/>
<path d="M-56.6954 241.626C-40.9995 201.59 -7.90656 190.193 6.6779 189.499C59.364 185.066 115.583 247.528 138.84 281.367C162.097 315.207 168.673 359.848 121.775 381.992C74.8771 404.135 39.9065 439.874 -21.7716 440.464C-83.4498 441.054 -124.92 394.549 -126.341 353.873C-127.762 313.197 -76.3154 291.671 -56.6954 241.626Z" stroke="url(#paint5_linear_721_231)"/>
<path d="M-42.9165 255.637C-30.2851 223.418 -3.65354 214.246 8.08334 213.688C50.4827 210.121 95.7249 260.387 114.441 287.619C133.157 314.851 138.449 350.777 100.708 368.597C62.9668 386.417 34.8242 415.178 -14.8115 415.652C-64.4471 416.127 -97.8205 378.702 -98.9641 345.968C-100.108 313.234 -58.7057 295.911 -42.9165 255.637Z" stroke="url(#paint6_linear_721_231)"/>
<path d="M-31.6031 267.14C-21.4875 241.338 -0.1601 233.993 9.23914 233.546C43.1938 230.689 79.4251 270.944 94.4135 292.752C109.402 314.56 113.64 343.33 83.4158 357.601C53.1915 371.872 30.654 394.905 -9.09573 395.285C-48.8455 395.665 -75.5718 365.694 -76.4877 339.48C-77.4036 313.265 -44.2476 299.392 -31.6031 267.14Z" stroke="url(#paint7_linear_721_231)"/>
</g>
<defs>
<linearGradient id="paint0_linear_721_231" x1="-54.6449" y1="-111.84" x2="69.0603" y2="558.543" gradientUnits="userSpaceOnUse">
<stop stop-color="white"/>
<stop offset="1" stop-color="white" stop-opacity="0"/>
</linearGradient>
<linearGradient id="paint1_linear_721_231" x1="-7.0732" y1="-141.702" x2="53.8946" y2="582.928" gradientUnits="userSpaceOnUse">
<stop stop-color="white"/>
<stop offset="1" stop-color="white" stop-opacity="0"/>
</linearGradient>
<linearGradient id="paint2_linear_721_231" x1="-2.40242" y1="-40.3069" x2="44.9815" y2="522.872" gradientUnits="userSpaceOnUse">
<stop stop-color="white"/>
<stop offset="1" stop-color="white" stop-opacity="0"/>
</linearGradient>
<linearGradient id="paint3_linear_721_231" x1="-0.29612" y1="5.46509" x2="40.9558" y2="495.762" gradientUnits="userSpaceOnUse">
<stop stop-color="white"/>
<stop offset="1" stop-color="white" stop-opacity="0"/>
</linearGradient>
<linearGradient id="paint4_linear_721_231" x1="1.75286" y1="49.9349" x2="37.0471" y2="469.423" gradientUnits="userSpaceOnUse">
<stop stop-color="white"/>
<stop offset="1" stop-color="white" stop-opacity="0"/>
</linearGradient>
<linearGradient id="paint5_linear_721_231" x1="4.64996" y1="112.873" x2="31.5124" y2="432.146" gradientUnits="userSpaceOnUse">
<stop stop-color="white"/>
<stop offset="1" stop-color="white" stop-opacity="0"/>
</linearGradient>
<linearGradient id="paint6_linear_721_231" x1="6.45135" y1="152.023" x2="28.069" y2="408.959" gradientUnits="userSpaceOnUse">
<stop stop-color="white"/>
<stop offset="1" stop-color="white" stop-opacity="0"/>
</linearGradient>
<linearGradient id="paint7_linear_721_231" x1="7.9322" y1="184.163" x2="25.2443" y2="389.924" gradientUnits="userSpaceOnUse">
<stop stop-color="white"/>
<stop offset="1" stop-color="white" stop-opacity="0"/>
</linearGradient>
</defs>
</svg>
