<svg width="496" height="467" viewBox="0 0 496 467" fill="none" xmlns="http://www.w3.org/2000/svg">
<g opacity="0.15">
<path d="M364.722 338.117C352.031 403.559 309.246 425.841 289.44 428.801C218.313 442.549 127.668 350.748 88.4141 300.096C49.1597 249.444 30.3608 179.546 89.6785 138.474C148.996 97.401 189.007 36.3088 273.283 27.5032C357.558 18.6977 424.517 87.0954 435.39 151.367C446.264 215.638 380.586 256.314 364.722 338.117Z" stroke="url(#paint0_linear_721_1496)"/>
<path d="M367.799 353.381C344.652 421.466 291.255 440.847 267.45 442.027C181.577 449.566 85.7165 343.343 45.5572 285.796C5.39787 228.249 -8.16499 152.332 67.1294 114.674C142.424 77.0163 197.359 16.2393 298.178 15.2361C398.998 14.2329 469.737 93.3195 474.62 162.493C479.504 231.666 396.732 268.274 367.799 353.381Z" stroke="url(#paint1_linear_721_1496)"/>
<path d="M341.078 326.19C323.089 379.106 281.589 394.169 263.088 395.086C196.347 400.945 121.845 318.389 90.6335 273.663C59.4219 228.938 48.8809 169.936 107.399 140.668C165.918 111.401 208.613 64.1655 286.97 63.3858C365.326 62.6061 420.304 124.072 424.099 177.833C427.895 231.594 363.565 260.046 341.078 326.19Z" stroke="url(#paint2_linear_721_1496)"/>
<path d="M329.017 313.916C313.355 359.984 277.226 373.097 261.119 373.896C203.015 378.996 138.155 307.124 110.982 268.187C83.8098 229.249 74.633 177.882 125.578 152.403C176.524 126.923 213.694 85.7999 281.91 85.1212C350.127 84.4424 397.99 137.954 401.294 184.758C404.598 231.561 348.594 256.331 329.017 313.916Z" stroke="url(#paint3_linear_721_1496)"/>
<path d="M317.296 301.991C303.897 341.406 272.985 352.625 259.205 353.308C209.492 357.672 153.999 296.18 130.751 262.866C107.503 229.552 99.6511 185.604 143.239 163.804C186.827 142.004 218.629 106.82 276.993 106.239C335.358 105.658 376.308 151.442 379.135 191.486C381.962 231.53 334.046 252.723 317.296 301.991Z" stroke="url(#paint4_linear_721_1496)"/>
<path d="M300.713 285.115C290.514 315.113 266.988 323.653 256.499 324.172C218.663 327.494 176.427 280.692 158.733 255.337C141.039 229.981 135.063 196.532 168.238 179.94C201.412 163.348 225.617 136.57 270.038 136.128C314.459 135.686 345.627 170.531 347.778 201.009C349.93 231.487 313.461 247.616 300.713 285.115Z" stroke="url(#paint5_linear_721_1496)"/>
<path d="M290.395 274.616C282.188 298.757 263.255 305.629 254.814 306.048C224.366 308.721 190.376 271.056 176.137 250.652C161.897 230.247 157.088 203.329 183.786 189.976C210.483 176.624 229.962 155.074 265.71 154.718C301.458 154.362 326.54 182.405 328.272 206.932C330.003 231.459 300.654 244.439 290.395 274.616Z" stroke="url(#paint6_linear_721_1496)"/>
<path d="M281.925 265.998C275.353 285.331 260.191 290.834 253.431 291.169C229.047 293.31 201.827 263.147 190.424 246.807C179.02 230.466 175.169 208.909 196.549 198.216C217.929 187.523 233.528 170.265 262.156 169.98C290.785 169.695 310.871 192.152 312.258 211.794C313.645 231.436 290.141 241.831 281.925 265.998Z" stroke="url(#paint7_linear_721_1496)"/>
</g>
<defs>
<linearGradient id="paint0_linear_721_1496" x1="309.035" y1="549.96" x2="211.565" y2="45.6705" gradientUnits="userSpaceOnUse">
<stop stop-color="white"/>
<stop offset="1" stop-color="white" stop-opacity="0"/>
</linearGradient>
<linearGradient id="paint1_linear_721_1496" x1="275.588" y1="572.337" x2="227.8" y2="27.9563" gradientUnits="userSpaceOnUse">
<stop stop-color="white"/>
<stop offset="1" stop-color="white" stop-opacity="0"/>
</linearGradient>
<linearGradient id="paint2_linear_721_1496" x1="269.413" y1="496.362" x2="232.272" y2="73.2718" gradientUnits="userSpaceOnUse">
<stop stop-color="white"/>
<stop offset="1" stop-color="white" stop-opacity="0"/>
</linearGradient>
<linearGradient id="paint3_linear_721_1496" x1="266.625" y1="462.066" x2="234.291" y2="93.7279" gradientUnits="userSpaceOnUse">
<stop stop-color="white"/>
<stop offset="1" stop-color="white" stop-opacity="0"/>
</linearGradient>
<linearGradient id="paint4_linear_721_1496" x1="263.916" y1="428.745" x2="236.251" y2="113.603" gradientUnits="userSpaceOnUse">
<stop stop-color="white"/>
<stop offset="1" stop-color="white" stop-opacity="0"/>
</linearGradient>
<linearGradient id="paint5_linear_721_1496" x1="260.085" y1="381.587" x2="239.029" y2="141.732" gradientUnits="userSpaceOnUse">
<stop stop-color="white"/>
<stop offset="1" stop-color="white" stop-opacity="0"/>
</linearGradient>
<linearGradient id="paint6_linear_721_1496" x1="257.7" y1="352.252" x2="240.755" y2="159.228" gradientUnits="userSpaceOnUse">
<stop stop-color="white"/>
<stop offset="1" stop-color="white" stop-opacity="0"/>
</linearGradient>
<linearGradient id="paint7_linear_721_1496" x1="255.742" y1="328.171" x2="242.172" y2="173.592" gradientUnits="userSpaceOnUse">
<stop stop-color="white"/>
<stop offset="1" stop-color="white" stop-opacity="0"/>
</linearGradient>
</defs>
</svg>
