<svg width="60" height="60" viewBox="0 0 60 60" fill="none" xmlns="http://www.w3.org/2000/svg">
<path d="M60 30C60 39.8841 55.2196 48.6514 47.8457 54.1175C44.7587 56.4049 41.2175 58.1142 37.3823 59.0841C35.0204 59.6829 32.5481 60 30 60C27.4519 60 24.9784 59.6829 22.6164 59.0841C18.7813 58.1142 15.24 56.4049 12.153 54.1162C4.77914 48.6502 0 39.8829 0 30C0 13.4314 13.4314 0 30 0C46.5686 0 60 13.4314 60 30Z" fill="#5ADAFD"/>
<path d="M47.8769 46.8916C47.736 45.9475 47.5499 44.9752 47.3198 43.981C47.1164 43.108 46.8802 42.2177 46.6121 41.314C45.9067 38.941 44.9774 36.4749 43.8509 33.9819C43.3574 32.892 42.826 31.7974 42.259 30.7039C41.7595 29.7403 41.2329 28.7753 40.6782 27.8165C40.1247 26.8565 39.5541 25.9185 38.9676 25.0039C38.3051 23.9668 37.6231 22.9603 36.9251 21.9879C35.3308 19.7655 33.6595 17.7268 31.9561 15.9291C31.3084 15.2446 30.6557 14.5956 30.0006 13.9846C29.255 13.2867 28.5055 12.639 27.7573 12.0451C22.8728 8.16709 18.5002 7.00259 15.4427 8.76709C12.3851 10.5328 11.2071 14.9017 12.1231 21.072C12.2627 22.0161 12.45 22.9884 12.6815 23.9826C12.8823 24.8556 13.1186 25.7459 13.388 26.6495C14.0934 29.0226 15.0227 31.49 16.1505 33.9817C16.6428 35.0716 17.1741 36.1649 17.7411 37.2584C18.2406 38.2233 18.7684 39.187 19.3219 40.147C19.8754 41.107 20.446 42.0449 21.0325 42.9596C21.6961 43.998 22.3782 45.0045 23.075 45.9767C24.6693 48.1992 26.3406 50.2367 28.0439 52.0342C28.6918 52.7187 29.3455 53.3689 30.0006 53.9799C30.7463 54.6779 31.4957 55.3244 32.2427 55.9183C34.039 57.3448 35.7655 58.404 37.3831 59.0837C41.2182 58.1138 44.7595 56.4045 47.8463 54.1171C48.2772 52.1312 48.2931 49.6981 47.8769 46.8916ZM45.1266 53.6716C44.7702 55.212 44.1152 56.2675 43.1785 56.8075C42.243 57.3487 41.0014 57.388 39.4891 56.9275C37.8507 56.4267 35.938 55.332 33.9569 53.7585C33.2908 53.2296 32.6234 52.654 31.956 52.0356C31.3021 51.4283 30.6482 50.7793 29.9993 50.0923C28.885 48.9132 27.783 47.6225 26.7079 46.2377C25.9904 45.3132 25.2838 44.3471 24.5944 43.3442C23.594 41.8907 22.6279 40.3601 21.7095 38.7683C20.7899 37.1764 19.9475 35.5748 19.1895 33.9817C18.6654 32.8833 18.1817 31.7887 17.7409 30.7051C17.0785 29.0814 16.5115 27.481 16.0475 25.9271C15.778 25.021 15.5418 24.132 15.3446 23.2614C15.1413 22.3749 14.976 21.5079 14.8511 20.6668C14.4789 18.1652 14.4875 15.9611 14.8731 14.2921C15.2295 12.7517 15.8857 11.6962 16.8213 11.1562C17.3269 10.8647 17.9208 10.7178 18.5979 10.7178C19.1759 10.7178 19.815 10.8243 20.5105 11.0374C22.1489 11.5369 24.0616 12.6329 26.0427 14.2052C26.7088 14.7342 27.3774 15.3097 28.0436 15.9305C28.6987 16.5366 29.3514 17.1856 29.9991 17.8714C31.1146 19.0505 32.2166 20.3412 33.293 21.7273C34.0105 22.6518 34.7171 23.6179 35.4065 24.6208C36.4056 26.0743 37.3718 27.6049 38.2901 29.1954C39.2097 30.7873 40.0522 32.3889 40.8101 33.982C41.3342 35.0815 41.8179 36.1763 42.2587 37.2599C42.9211 38.8836 43.4881 40.4828 43.9521 42.0366C44.2216 42.9427 44.4578 43.8317 44.6562 44.7023C44.8582 45.5888 45.0236 46.4558 45.1485 47.2969C45.5209 49.7985 45.5124 52.0026 45.1266 53.6716Z" fill="#F2F2F2"/>
<path d="M50.1191 24.9563C49.2313 24.6061 48.2958 24.2816 47.3187 23.9828C46.4616 23.722 45.5726 23.4808 44.6553 23.2616C42.248 22.6861 39.6472 22.2576 36.9252 21.9882C35.7362 21.8693 34.5227 21.7825 33.2933 21.7273C32.2084 21.6771 31.1088 21.6514 30.0007 21.6514C28.8926 21.6514 27.7929 21.677 26.7068 21.7273C25.4762 21.7824 24.2627 21.8706 23.0737 21.9882C20.3517 22.2576 17.7521 22.6861 15.3448 23.2616C14.4277 23.4808 13.5387 23.7221 12.6814 23.9828C11.7043 24.2804 10.7688 24.6061 9.88101 24.9563C4.0807 27.246 0.884766 30.4518 0.884766 33.982C0.884766 37.5121 4.0807 40.7179 9.88113 43.0089C10.7689 43.3591 11.7032 43.6836 12.6803 43.9824C13.5374 44.2432 14.4264 44.4844 15.3436 44.7024C17.751 45.2791 20.3517 45.7064 23.075 45.977C24.264 46.0946 25.4775 46.1815 26.7081 46.2379C27.793 46.288 28.8926 46.3125 30.0007 46.3125C31.1088 46.3125 32.2072 46.288 33.2921 46.2379C34.5227 46.1815 35.735 46.0946 36.9252 45.977C39.6472 45.7076 42.2493 45.2791 44.6566 44.7024C45.5737 44.4832 46.4627 44.2432 47.32 43.9812C48.2959 43.6837 49.2314 43.3592 50.1191 43.0089C55.9207 40.7179 59.1155 37.5122 59.1155 33.982C59.1153 30.4518 55.9207 27.246 50.1191 24.9563ZM54.6153 37.2366C53.3639 38.406 51.4587 39.5141 49.1064 40.4436C48.3142 40.7557 47.4814 41.0472 46.612 41.3141C45.7586 41.5775 44.8709 41.8186 43.9525 42.0366C42.3741 42.4125 40.7051 42.7211 38.9675 42.9599C37.8091 43.1204 36.6202 43.2489 35.4067 43.3432C33.6471 43.4841 31.8386 43.5551 30.0006 43.5551C28.1626 43.5551 26.3541 43.4841 24.5945 43.3445C23.381 43.249 22.1909 43.1205 21.0325 42.96C19.2949 42.7212 17.6259 42.4127 16.0475 42.0367C15.1291 41.8187 14.2414 41.5776 13.388 41.3143C12.5186 41.0473 11.6859 40.7559 10.8936 40.4437C8.54145 39.5143 6.63609 38.4061 5.38465 37.2367C4.22871 36.1579 3.64219 35.0632 3.64219 33.9821C3.64219 32.9009 4.22871 31.8061 5.38465 30.7274C6.63609 29.558 8.54133 28.4499 10.8936 27.5205C11.6858 27.2083 12.5186 26.9168 13.388 26.6499C14.2414 26.3866 15.1291 26.1454 16.0475 25.9274C17.6259 25.5515 19.2949 25.2429 21.0325 25.0041C22.1909 24.8437 23.381 24.7151 24.5945 24.6196C26.3541 24.48 28.1626 24.409 30.0006 24.409C31.8386 24.409 33.6471 24.48 35.4067 24.6209C36.6202 24.7152 37.8091 24.8438 38.9675 25.0042C40.7051 25.243 42.3741 25.5516 43.9525 25.9275C44.8709 26.1455 45.7586 26.3867 46.612 26.65C47.4814 26.917 48.3141 27.2084 49.1064 27.5206C51.4585 28.45 53.3639 29.5581 54.6153 30.7275C55.7713 31.8064 56.3578 32.901 56.3578 33.9822C56.3578 35.0632 55.7713 36.1579 54.6153 37.2366Z" fill="#F2F2F2"/>
<path d="M44.5571 8.76709C41.4996 7.00259 37.127 8.16709 32.2425 12.0451C31.4955 12.639 30.7461 13.2867 30.0004 13.9846C29.3454 14.5956 28.6915 15.2458 28.0438 15.9303C26.3404 17.7278 24.6691 19.7654 23.0736 21.9878C22.3769 22.96 21.6948 23.9667 21.0324 25.0038C20.4459 25.9184 19.8753 26.8564 19.3219 27.8164C18.7684 28.7764 18.2407 29.74 17.741 30.7049C17.174 31.7984 16.6426 32.8931 16.1504 33.9816C15.0226 36.4747 14.0933 38.9408 13.3879 41.3138C13.1185 42.2187 12.8823 43.1089 12.6801 43.9819C12.45 44.9763 12.2626 45.9473 12.123 46.8913C11.7067 49.6967 11.7226 52.1297 12.1536 54.1158C15.2406 56.4044 18.7817 58.1138 22.6169 59.0837C24.2345 58.4041 25.961 57.3448 27.7574 55.9183C28.5055 55.3244 29.2549 54.6767 30.0007 53.9799C30.6558 53.3689 31.3085 52.7199 31.9562 52.0354C33.6582 50.2379 35.3308 48.199 36.9252 45.9766C37.6219 45.0043 38.304 43.9978 38.9676 42.9595C39.5542 42.0448 40.1247 41.1069 40.6782 40.1469C41.2329 39.188 41.7594 38.2244 42.2591 37.2595C42.826 36.166 43.3575 35.0713 43.851 33.9815C44.9775 31.4896 45.9069 29.0224 46.6121 26.6493C46.8803 25.7457 47.1166 24.8554 47.3187 23.9824C47.5501 22.988 47.7362 22.0158 47.877 21.0718C48.7926 14.9017 47.6148 10.5328 44.5571 8.76709ZM43.9523 25.9271C43.4883 27.481 42.9213 29.0801 42.2588 30.7038C41.818 31.7874 41.3344 32.8822 40.8103 33.9817C40.0523 35.5748 39.2099 37.1764 38.2903 38.7683C37.3719 40.3588 36.4058 41.8894 35.4067 43.3429C34.7161 44.347 34.0096 45.3131 33.292 46.2376C32.2169 47.6225 31.1149 48.9131 29.9994 50.0922C29.3517 50.7779 28.699 51.4269 28.0439 52.0342C27.3778 52.6538 26.7092 53.2293 26.043 53.7583C24.0619 55.3318 22.1491 56.4264 20.5108 56.9273C18.9987 57.3877 17.7569 57.3485 16.8214 56.8073C15.8859 56.2673 15.2296 55.2118 14.8733 53.6713C14.4876 52.0024 14.479 49.7983 14.8513 47.2967C14.9762 46.4555 15.1414 45.5886 15.3435 44.702C15.5419 43.8315 15.7781 42.9425 16.0475 42.0364C16.5116 40.4825 17.0785 38.8821 17.741 37.2584C18.1819 36.1748 18.6655 35.08 19.1895 33.9817C19.9475 32.3887 20.79 30.7871 21.7096 29.1952C22.6279 27.6033 23.594 26.0728 24.5945 24.6193C25.2839 23.6164 25.9891 22.6503 26.7067 21.7271C27.783 20.341 28.8851 19.0504 29.9993 17.8712C30.6483 17.1842 31.3022 16.5352 31.956 15.9291C32.6233 15.3095 33.2906 14.734 33.9568 14.2051C35.938 12.6329 37.8507 11.5369 39.489 11.0372C40.1845 10.8242 40.8237 10.7177 41.4016 10.7177C42.0787 10.7177 42.6738 10.8646 43.1783 11.1561C44.115 11.6961 44.7702 12.7516 45.1264 14.292C45.5121 15.961 45.5208 18.1651 45.1485 20.6667C45.0235 21.5078 44.8583 22.3748 44.655 23.2613C44.458 24.1319 44.2216 25.0209 43.9523 25.9271Z" fill="#F2F2F2"/>
<path d="M29.9995 39.4541C33.0217 39.4541 35.4717 37.0042 35.4717 33.982C35.4717 30.9597 33.0217 28.5098 29.9995 28.5098C26.9773 28.5098 24.5273 30.9597 24.5273 33.982C24.5273 37.0042 26.9773 39.4541 29.9995 39.4541Z" fill="#F2F2F2"/>
</svg>
