<svg width="60" height="60" viewBox="0 0 60 60" fill="none" xmlns="http://www.w3.org/2000/svg">
<path d="M17.9984 18.5171H14.6851L23.7183 44.0519L28.7754 29.6005L24.8546 18.5171H21.3586V16.084H36.8397V18.5171H33.2144L42.2475 44.0519L45.4946 34.7727C49.7541 22.8843 42.0035 19.1811 42.0035 16.5279C42.0035 13.8747 44.1543 11.724 46.8074 11.724C46.9509 11.724 47.0903 11.7318 47.2269 11.7445C42.7315 7.50082 36.6699 4.89844 29.9999 4.89844C21.2846 4.89844 13.6077 9.34087 9.10742 16.084H17.9982V18.5171H17.9984Z" fill="#00769D"/>
<path d="M4.89844 30C4.89844 39.6102 10.3 47.9576 18.2318 52.1757L6.90387 20.1543C5.61347 23.1774 4.89844 26.5051 4.89844 30Z" fill="#00769D"/>
<path d="M51.8461 17.6309C52.2051 19.745 52.0965 22.1211 51.5455 24.5065H51.6453L51.2658 25.5911C51.0409 26.3742 50.7577 27.1753 50.436 27.9624L41.7988 52.1596C49.714 47.9364 55.1017 39.598 55.1017 30C55.1017 25.5025 53.9177 21.2819 51.8461 17.6309Z" fill="#00769D"/>
<path d="M22.2578 53.8829C24.6964 54.6728 27.2976 55.1013 29.9994 55.1013C32.5765 55.1013 35.0625 54.7124 37.4029 53.9909L30.0604 33.2354L22.2578 53.8829Z" fill="#00769D"/>
<path d="M51.2131 8.78675C45.5469 3.12053 38.0132 0 29.9999 0C21.9866 0 14.453 3.12053 8.78675 8.78675C3.12053 14.453 0 21.9866 0 30C0 38.0133 3.12053 45.5469 8.78675 51.2131C14.453 56.8793 21.9867 59.9999 30 59.9999C38.0133 59.9999 45.5469 56.8793 51.2132 51.2131C56.8795 45.5469 60 38.0132 60 30C59.9999 21.9866 56.8793 14.453 51.2131 8.78675ZM29.9999 57.8836C14.6248 57.8836 2.11627 45.3751 2.11627 30C2.11627 14.6249 14.6248 2.11627 29.9999 2.11627C45.3749 2.11627 57.8835 14.6249 57.8835 30C57.8835 45.3751 45.3751 57.8836 29.9999 57.8836Z" fill="#00769D"/>
</svg>
