<svg width="496" height="442" viewBox="0 0 496 442" fill="none" xmlns="http://www.w3.org/2000/svg">
<g opacity="0.13">
<path d="M130.898 121.429C145.804 59.3676 188.814 38.237 208.456 35.4294C279.108 22.3922 365.157 109.45 402.024 157.486C438.891 205.521 454.881 271.808 394.879 310.759C334.877 349.71 293.185 407.646 209.746 415.997C126.307 424.347 62.7634 359.483 54.3848 298.532C46.0063 237.58 112.267 199.006 130.898 121.429Z" stroke="url(#paint0_linear_721_1468)"/>
<path d="M128.42 106.954C153.734 42.3855 207.104 24.0056 230.625 22.8866C315.595 15.7376 406.262 116.473 443.77 171.047C481.277 225.621 491.883 297.617 416.248 333.329C340.614 369.042 284.215 426.679 184.743 427.63C85.2717 428.582 18.3904 353.581 16.0985 287.981C13.8066 222.381 96.7777 187.664 128.42 106.954Z" stroke="url(#paint1_linear_721_1468)"/>
<path d="M153.781 132.739C173.455 82.557 214.934 68.2722 233.215 67.4026C299.253 61.8464 369.719 140.138 398.87 182.552C428.02 224.967 436.263 280.922 377.48 308.677C318.697 336.432 274.865 381.228 197.556 381.967C120.247 382.707 68.2671 324.416 66.4858 273.432C64.7046 222.449 129.189 195.467 153.781 132.739Z" stroke="url(#paint2_linear_721_1468)"/>
<path d="M165.229 144.379C182.356 100.691 218.468 88.2548 234.383 87.4977C291.875 82.6606 353.221 150.82 378.6 187.746C403.978 224.672 411.154 273.385 359.978 297.549C308.803 321.712 270.642 360.711 203.338 361.354C136.034 361.998 90.7807 311.251 89.23 266.865C87.6792 222.479 143.819 198.989 165.229 144.379Z" stroke="url(#paint3_linear_721_1468)"/>
<path d="M176.354 155.688C191.008 118.31 221.904 107.67 235.52 107.022C284.709 102.883 337.196 161.199 358.909 192.792C380.623 224.385 386.762 266.063 342.977 286.737C299.192 307.411 266.543 340.777 208.959 341.328C151.375 341.879 112.658 298.461 111.331 260.485C110.004 222.509 158.036 202.412 176.354 155.688Z" stroke="url(#paint4_linear_721_1468)"/>
<path d="M192.093 171.694C203.246 143.245 226.761 135.147 237.125 134.654C274.563 131.504 314.511 175.888 331.036 199.934C347.562 223.979 352.235 255.7 318.911 271.435C285.586 287.17 260.736 312.565 216.909 312.984C173.082 313.403 143.614 280.358 142.604 251.455C141.594 222.551 178.151 207.255 192.093 171.694Z" stroke="url(#paint5_linear_721_1468)"/>
<path d="M201.887 181.649C210.862 158.755 229.786 152.238 238.126 151.841C268.254 149.306 300.402 185.025 313.702 204.375C327.001 223.726 330.761 249.254 303.943 261.916C277.125 274.579 257.128 295.016 221.857 295.353C186.587 295.69 162.873 269.097 162.06 245.837C161.248 222.577 190.667 210.267 201.887 181.649Z" stroke="url(#paint6_linear_721_1468)"/>
<path d="M209.925 189.822C217.113 171.488 232.268 166.269 238.947 165.951C263.074 163.921 288.819 192.526 299.47 208.022C310.12 223.519 313.132 243.962 291.655 254.103C270.178 264.243 254.164 280.61 225.918 280.88C197.673 281.15 178.682 259.853 178.031 241.226C177.38 222.598 200.94 212.74 209.925 189.822Z" stroke="url(#paint7_linear_721_1468)"/>
</g>
<defs>
<linearGradient id="paint0_linear_721_1468" x1="210.724" y1="304.41" x2="432.389" y2="135.613" gradientUnits="userSpaceOnUse">
<stop stop-color="#705FFF"/>
<stop offset="1" stop-color="#705FFF" stop-opacity="0"/>
</linearGradient>
<linearGradient id="paint1_linear_721_1468" x1="199.796" y1="309.084" x2="466.446" y2="127.389" gradientUnits="userSpaceOnUse">
<stop stop-color="#705FFF"/>
<stop offset="1" stop-color="#705FFF" stop-opacity="0"/>
</linearGradient>
<linearGradient id="paint2_linear_721_1468" x1="209.255" y1="289.834" x2="416.494" y2="148.621" gradientUnits="userSpaceOnUse">
<stop stop-color="#705FFF"/>
<stop offset="1" stop-color="#705FFF" stop-opacity="0"/>
</linearGradient>
<linearGradient id="paint3_linear_721_1468" x1="213.523" y1="281.144" x2="393.943" y2="158.206" gradientUnits="userSpaceOnUse">
<stop stop-color="#705FFF"/>
<stop offset="1" stop-color="#705FFF" stop-opacity="0"/>
</linearGradient>
<linearGradient id="paint4_linear_721_1468" x1="217.673" y1="272.702" x2="372.037" y2="167.518" gradientUnits="userSpaceOnUse">
<stop stop-color="#705FFF"/>
<stop offset="1" stop-color="#705FFF" stop-opacity="0"/>
</linearGradient>
<linearGradient id="paint5_linear_721_1468" x1="223.542" y1="260.753" x2="341.028" y2="180.698" gradientUnits="userSpaceOnUse">
<stop stop-color="#705FFF"/>
<stop offset="1" stop-color="#705FFF" stop-opacity="0"/>
</linearGradient>
<linearGradient id="paint6_linear_721_1468" x1="227.195" y1="253.32" x2="321.742" y2="188.895" gradientUnits="userSpaceOnUse">
<stop stop-color="#705FFF"/>
<stop offset="1" stop-color="#705FFF" stop-opacity="0"/>
</linearGradient>
<linearGradient id="paint7_linear_721_1468" x1="230.193" y1="247.218" x2="305.909" y2="195.625" gradientUnits="userSpaceOnUse">
<stop stop-color="#705FFF"/>
<stop offset="1" stop-color="#705FFF" stop-opacity="0"/>
</linearGradient>
</defs>
</svg>
