<svg width="612" height="642" viewBox="0 0 612 642" fill="none" xmlns="http://www.w3.org/2000/svg">
<g opacity="0.13">
<path d="M166.691 331.691C133.799 280.254 147.762 236.592 158.855 221.191C196.729 163.845 313.811 162.275 371.374 168.724C428.936 175.172 485.232 208.117 472.283 275.31C459.334 342.503 471.616 409.668 422.029 472.72C372.442 535.772 285.586 536.549 238.016 501.897C190.446 467.245 207.806 395.988 166.691 331.691Z" stroke="url(#paint0_linear_721_1505)"/>
<path d="M155.071 323.798C127.355 263.524 150.085 214.545 164.915 197.591C216.345 134.281 345.917 138.6 408.411 148.944C470.906 159.288 527.566 199.73 502.016 275.55C476.466 351.371 478.786 428.475 413.466 497.67C348.145 566.865 252.088 563.219 205.351 521.289C158.614 479.358 189.716 399.141 155.071 323.798Z" stroke="url(#paint1_linear_721_1505)"/>
<path d="M189.666 323.42C168.125 276.575 185.791 238.509 197.316 225.332C237.287 176.128 337.99 179.485 386.561 187.524C435.131 195.563 479.167 226.995 459.31 285.922C439.452 344.849 441.256 404.774 390.489 458.552C339.722 512.33 265.067 509.497 228.743 476.909C192.42 444.321 216.592 381.976 189.666 323.42Z" stroke="url(#paint2_linear_721_1505)"/>
<path d="M205.282 323.25C186.529 282.467 201.909 249.328 211.943 237.856C246.741 195.019 334.412 197.942 376.697 204.941C418.982 211.939 457.319 239.303 440.031 290.605C422.743 341.906 424.314 394.076 380.117 440.895C335.92 487.713 270.926 485.247 239.303 456.876C207.679 428.505 228.724 374.228 205.282 323.25Z" stroke="url(#paint3_linear_721_1505)"/>
<path d="M220.455 323.084C204.41 288.191 217.568 259.837 226.153 250.022C255.926 213.372 330.935 215.872 367.113 221.86C403.291 227.848 436.092 251.26 421.301 295.153C406.51 339.045 407.853 383.681 370.039 423.738C332.225 463.795 276.618 461.684 249.562 437.411C222.506 413.137 240.511 366.7 220.455 323.084Z" stroke="url(#paint4_linear_721_1505)"/>
<path d="M241.927 322.849C229.715 296.293 239.73 274.713 246.264 267.242C268.924 239.348 326.014 241.251 353.549 245.809C381.084 250.366 406.049 268.185 394.791 301.591C383.534 334.998 384.556 368.97 355.776 399.457C326.996 429.945 284.673 428.339 264.08 409.864C243.488 391.389 257.192 356.046 241.927 322.849Z" stroke="url(#paint5_linear_721_1505)"/>
<path d="M255.284 322.703C245.457 301.331 253.516 283.965 258.775 277.953C277.01 255.505 322.953 257.036 345.112 260.704C367.271 264.372 387.362 278.711 378.302 305.596C369.243 332.48 370.066 359.819 346.905 384.354C323.743 408.888 289.684 407.596 273.112 392.728C256.541 377.861 267.569 349.418 255.284 322.703Z" stroke="url(#paint6_linear_721_1505)"/>
<path d="M266.251 322.583C258.381 305.468 264.835 291.561 269.046 286.746C283.65 268.769 320.442 269.996 338.188 272.933C355.933 275.87 372.022 287.354 364.767 308.883C357.512 330.413 358.171 352.307 339.623 371.955C321.075 391.603 293.799 390.568 280.528 378.662C267.257 366.755 276.088 343.977 266.251 322.583Z" stroke="url(#paint7_linear_721_1505)"/>
</g>
<defs>
<linearGradient id="paint0_linear_721_1505" x1="69.7702" y1="155.255" x2="456.421" y2="410.62" gradientUnits="userSpaceOnUse">
<stop stop-color="white"/>
<stop offset="1" stop-color="white" stop-opacity="0"/>
</linearGradient>
<linearGradient id="paint1_linear_721_1505" x1="77.5651" y1="117.879" x2="461.217" y2="429.54" gradientUnits="userSpaceOnUse">
<stop stop-color="white"/>
<stop offset="1" stop-color="white" stop-opacity="0"/>
</linearGradient>
<linearGradient id="paint2_linear_721_1505" x1="129.429" y1="163.381" x2="427.601" y2="405.602" gradientUnits="userSpaceOnUse">
<stop stop-color="white"/>
<stop offset="1" stop-color="white" stop-opacity="0"/>
</linearGradient>
<linearGradient id="paint3_linear_721_1505" x1="152.84" y1="183.922" x2="412.426" y2="394.797" gradientUnits="userSpaceOnUse">
<stop stop-color="white"/>
<stop offset="1" stop-color="white" stop-opacity="0"/>
</linearGradient>
<linearGradient id="paint4_linear_721_1505" x1="175.586" y1="203.877" x2="397.682" y2="384.297" gradientUnits="userSpaceOnUse">
<stop stop-color="white"/>
<stop offset="1" stop-color="white" stop-opacity="0"/>
</linearGradient>
<linearGradient id="paint5_linear_721_1505" x1="207.778" y1="232.121" x2="376.815" y2="369.439" gradientUnits="userSpaceOnUse">
<stop stop-color="white"/>
<stop offset="1" stop-color="white" stop-opacity="0"/>
</linearGradient>
<linearGradient id="paint6_linear_721_1505" x1="227.803" y1="249.689" x2="363.836" y2="360.196" gradientUnits="userSpaceOnUse">
<stop stop-color="white"/>
<stop offset="1" stop-color="white" stop-opacity="0"/>
</linearGradient>
<linearGradient id="paint7_linear_721_1505" x1="244.242" y1="264.112" x2="353.182" y2="352.609" gradientUnits="userSpaceOnUse">
<stop stop-color="white"/>
<stop offset="1" stop-color="white" stop-opacity="0"/>
</linearGradient>
</defs>
</svg>
