<?xml version="1.0" encoding="UTF-8"?>
<svg id="Layer_1" data-name="Layer 1" xmlns="http://www.w3.org/2000/svg" viewBox="0 0 70 70">
  <defs>
    <style>
      .cls-1 {
        fill: #939598;
      }

      .cls-2 {
        fill: none;
        stroke: #939598;
        stroke-linecap: round;
        stroke-linejoin: round;
        stroke-width: 3.09px;
      }
    </style>
  </defs>
  <path class="cls-1" d="M28.06,23.73h15.42v.04c-.91,1.59-1.43,2.44-1.55,2.55h-4.11c.57,.76,.95,1.67,1.15,2.74h4.39s.07,.04,.07,.08c-.98,1.66-1.49,2.5-1.51,2.52h-2.84c-.06,.85-.42,1.88-1.08,3.1-.9,1.22-1.74,2.02-2.54,2.39-1.49,.81-2.91,1.21-4.28,1.21v.04c0,.11,.33,.61,1,1.5l7.61,10.43v.49s-.03,.08-.08,.08h-3.35c-6.03-7.96-9.05-11.96-9.05-12v-2.42l.04-.09c.53,.09,1.15,.13,1.87,.13,3.37,0,5.47-1.24,6.3-3.73,.13-.37,.19-.74,.19-1.12h-9.16s-.08-.03-.08-.09c1.01-1.66,1.53-2.5,1.55-2.5h7.29v-.04c-.43-.96-1.24-1.7-2.42-2.23-.86-.32-1.63-.47-2.31-.47h-4.07v-.09c.99-1.67,1.49-2.5,1.51-2.5Z"/>
  <g>
    <polyline class="cls-2" points="16.26 41.33 8.32 34.28 2.5 41.33"/>
    <g>
      <path class="cls-2" d="M60.62,43.26c-3.57,11.03-13.91,18.54-25.5,18.54-14.7,0-26.8-12.1-26.8-26.8"/>
      <g>
        <path class="cls-2" d="M9.38,26.74c3.57-11.03,13.91-18.54,25.5-18.54,14.7,0,26.8,12.1,26.8,26.8"/>
        <polyline class="cls-2" points="53.74 28.67 61.68 35.72 67.5 28.67"/>
      </g>
    </g>
  </g>
</svg>